{
    "asset" : {
        "generator" : "Khronos glTF Blender I/O v3.4.50",
        "version" : "2.0"
    },
    "extensionsUsed" : [
        "KHR_materials_unlit"
    ],
    "scene" : 0,
    "scenes" : [
        {
            "name" : "Scene",
            "nodes" : [
                10
            ]
        }
    ],
    "nodes" : [
        {
            "mesh" : 0,
            "name" : "Knapsack_alpha_0"
        },
        {
            "mesh" : 1,
            "name" : "Knapsack_emissive_alpha_0"
        },
        {
            "mesh" : 2,
            "name" : "Knapsack_glass_0"
        },
        {
            "mesh" : 3,
            "name" : "Knapsack_glows_inner_0"
        },
        {
            "mesh" : 4,
            "name" : "Knapsack_glows_outer_0"
        },
        {
            "mesh" : 5,
            "name" : "Knapsack_magic_glass_0"
        },
        {
            "mesh" : 6,
            "name" : "Knapsack_tex_0"
        },
        {
            "children" : [
                0,
                1,
                2,
                3,
                4,
                5,
                6
            ],
            "name" : "Knapsack"
        },
        {
            "children" : [
                7
            ],
            "name" : "RootNode"
        },
        {
            "children" : [
                8
            ],
            "name" : "knapsack.FBX"
        },
        {
            "children" : [
                9
            ],
            "name" : "Sketchfab_model"
        }
    ],
    "materials" : [
        {
            "alphaMode" : "BLEND",
            "doubleSided" : true,
            "extensions" : {
                "KHR_materials_unlit" : {}
            },
            "name" : "alpha",
            "pbrMetallicRoughness" : {
                "baseColorTexture" : {
                    "index" : 0,
                    "texCoord" : 0
                },
                "metallicFactor" : 0,
                "roughnessFactor" : 0.9
            }
        },
        {
            "alphaMode" : "BLEND",
            "doubleSided" : true,
            "extensions" : {
                "KHR_materials_unlit" : {}
            },
            "name" : "emissive_alpha",
            "pbrMetallicRoughness" : {
                "baseColorTexture" : {
                    "index" : 1,
                    "texCoord" : 0
                },
                "metallicFactor" : 0,
                "roughnessFactor" : 0.9
            }
        },
        {
            "alphaMode" : "BLEND",
            "doubleSided" : true,
            "extensions" : {
                "KHR_materials_unlit" : {}
            },
            "name" : "glass",
            "pbrMetallicRoughness" : {
                "baseColorFactor" : [
                    1,
                    1,
                    1,
                    0.7799999713897705
                ],
                "baseColorTexture" : {
                    "index" : 2,
                    "texCoord" : 0
                },
                "metallicFactor" : 0,
                "roughnessFactor" : 0.9
            }
        },
        {
            "doubleSided" : true,
            "extensions" : {
                "KHR_materials_unlit" : {}
            },
            "name" : "glows_inner",
            "pbrMetallicRoughness" : {
                "baseColorFactor" : [
                    0.07000000029802322,
                    0.07000000029802322,
                    0.07000000029802322,
                    1
                ],
                "baseColorTexture" : {
                    "index" : 3,
                    "texCoord" : 0
                },
                "metallicFactor" : 0,
                "roughnessFactor" : 0.9
            }
        },
        {
            "alphaMode" : "BLEND",
            "doubleSided" : true,
            "extensions" : {
                "KHR_materials_unlit" : {}
            },
            "name" : "glows_outer",
            "pbrMetallicRoughness" : {
                "baseColorFactor" : [
                    1,
                    1,
                    1,
                    0.7200000286102295
                ],
                "baseColorTexture" : {
                    "index" : 4,
                    "texCoord" : 0
                },
                "metallicFactor" : 0,
                "roughnessFactor" : 0.9
            }
        },
        {
            "alphaMode" : "BLEND",
            "doubleSided" : true,
            "extensions" : {
                "KHR_materials_unlit" : {}
            },
            "name" : "magic_glass",
            "pbrMetallicRoughness" : {
                "baseColorFactor" : [
                    1,
                    1,
                    1,
                    0.4399999976158142
                ],
                "baseColorTexture" : {
                    "index" : 5,
                    "texCoord" : 0
                },
                "metallicFactor" : 0,
                "roughnessFactor" : 0.9
            }
        },
        {
            "doubleSided" : true,
            "extensions" : {
                "KHR_materials_unlit" : {}
            },
            "name" : "material",
            "pbrMetallicRoughness" : {
                "baseColorTexture" : {
                    "index" : 6,
                    "texCoord" : 0
                },
                "metallicFactor" : 0,
                "roughnessFactor" : 0.9
            }
        }
    ],
    "meshes" : [
        {
            "name" : "Knapsack_alpha_0",
            "primitives" : [
                {
                    "attributes" : {
                        "POSITION" : 0,
                        "TEXCOORD_0" : 1,
                        "TEXCOORD_1" : 2,
                        "NORMAL" : 3,
                        "TANGENT" : 4
                    },
                    "indices" : 5,
                    "material" : 0
                }
            ]
        },
        {
            "name" : "Knapsack_emissive_alpha_0",
            "primitives" : [
                {
                    "attributes" : {
                        "POSITION" : 6,
                        "TEXCOORD_0" : 7,
                        "TEXCOORD_1" : 8,
                        "NORMAL" : 9,
                        "TANGENT" : 10
                    },
                    "indices" : 11,
                    "material" : 1
                }
            ]
        },
        {
            "name" : "Knapsack_glass_0",
            "primitives" : [
                {
                    "attributes" : {
                        "POSITION" : 12,
                        "TEXCOORD_0" : 13,
                        "TEXCOORD_1" : 14,
                        "NORMAL" : 15,
                        "TANGENT" : 16
                    },
                    "indices" : 17,
                    "material" : 2
                }
            ]
        },
        {
            "name" : "Knapsack_glows_inner_0",
            "primitives" : [
                {
                    "attributes" : {
                        "POSITION" : 18,
                        "TEXCOORD_0" : 19,
                        "NORMAL" : 20,
                        "TANGENT" : 21
                    },
                    "indices" : 22,
                    "material" : 3
                }
            ]
        },
        {
            "name" : "Knapsack_glows_outer_0",
            "primitives" : [
                {
                    "attributes" : {
                        "POSITION" : 23,
                        "TEXCOORD_0" : 24,
                        "NORMAL" : 25,
                        "TANGENT" : 26
                    },
                    "indices" : 27,
                    "material" : 4
                }
            ]
        },
        {
            "name" : "Knapsack_magic_glass_0",
            "primitives" : [
                {
                    "attributes" : {
                        "POSITION" : 28,
                        "TEXCOORD_0" : 29,
                        "TEXCOORD_1" : 30,
                        "NORMAL" : 31,
                        "TANGENT" : 32
                    },
                    "indices" : 33,
                    "material" : 5
                }
            ]
        },
        {
            "name" : "Knapsack_tex_0",
            "primitives" : [
                {
                    "attributes" : {
                        "POSITION" : 34,
                        "TEXCOORD_0" : 35,
                        "NORMAL" : 36,
                        "TANGENT" : 37
                    },
                    "indices" : 38,
                    "material" : 6
                }
            ]
        }
    ],
    "textures" : [
        {
            "sampler" : 0,
            "source" : 0
        },
        {
            "sampler" : 0,
            "source" : 0
        },
        {
            "sampler" : 0,
            "source" : 1
        },
        {
            "sampler" : 0,
            "source" : 2
        },
        {
            "sampler" : 0,
            "source" : 2
        },
        {
            "sampler" : 0,
            "source" : 1
        },
        {
            "sampler" : 0,
            "source" : 3
        }
    ],
    "images" : [
        {
            "mimeType" : "image/png",
            "name" : "alpha_baseColor.png",
            "uri" : "textures/alpha_baseColor.png"
        },
        {
            "mimeType" : "image/png",
            "name" : "glass_baseColor.png",
            "uri" : "textures/glass_baseColor.png"
        },
        {
            "mimeType" : "image/png",
            "name" : "glows_inner_baseColor.png",
            "uri" : "textures/glows_inner_baseColor.png"
        },
        {
            "mimeType" : "image/png",
            "name" : "material_baseColor.png",
            "uri" : "textures/material_baseColor.png"
        }
    ],
    "accessors" : [
        {
            "bufferView" : 0,
            "componentType" : 5126,
            "count" : 294,
            "max" : [
                0.2639477550983429,
                0.46139049530029297,
                0.1995997279882431
            ],
            "min" : [
                -0.2707814872264862,
                -0.5134202241897583,
                -0.13139939308166504
            ],
            "type" : "VEC3"
        },
        {
            "bufferView" : 1,
            "componentType" : 5126,
            "count" : 294,
            "type" : "VEC2"
        },
        {
            "bufferView" : 2,
            "componentType" : 5126,
            "count" : 294,
            "type" : "VEC2"
        },
        {
            "bufferView" : 3,
            "componentType" : 5126,
            "count" : 294,
            "type" : "VEC3"
        },
        {
            "bufferView" : 4,
            "componentType" : 5126,
            "count" : 294,
            "type" : "VEC4"
        },
        {
            "bufferView" : 5,
            "componentType" : 5123,
            "count" : 510,
            "type" : "SCALAR"
        },
        {
            "bufferView" : 6,
            "componentType" : 5126,
            "count" : 54,
            "max" : [
                0.15643179416656494,
                0.2228173166513443,
                0.09520693123340607
            ],
            "min" : [
                -0.1320991814136505,
                -0.05806022882461548,
                -0.022000722587108612
            ],
            "type" : "VEC3"
        },
        {
            "bufferView" : 7,
            "componentType" : 5126,
            "count" : 54,
            "type" : "VEC2"
        },
        {
            "bufferView" : 8,
            "componentType" : 5126,
            "count" : 54,
            "type" : "VEC2"
        },
        {
            "bufferView" : 9,
            "componentType" : 5126,
            "count" : 54,
            "type" : "VEC3"
        },
        {
            "bufferView" : 10,
            "componentType" : 5126,
            "count" : 54,
            "type" : "VEC4"
        },
        {
            "bufferView" : 11,
            "componentType" : 5123,
            "count" : 54,
            "type" : "SCALAR"
        },
        {
            "bufferView" : 12,
            "componentType" : 5126,
            "count" : 548,
            "max" : [
                0.20885801315307617,
                0.19079150259494781,
                0.1793055385351181
            ],
            "min" : [
                -0.17362825572490692,
                -0.12398552894592285,
                -0.05141742527484894
            ],
            "type" : "VEC3"
        },
        {
            "bufferView" : 13,
            "componentType" : 5126,
            "count" : 548,
            "type" : "VEC2"
        },
        {
            "bufferView" : 14,
            "componentType" : 5126,
            "count" : 548,
            "type" : "VEC2"
        },
        {
            "bufferView" : 15,
            "componentType" : 5126,
            "count" : 548,
            "type" : "VEC3"
        },
        {
            "bufferView" : 16,
            "componentType" : 5126,
            "count" : 548,
            "type" : "VEC4"
        },
        {
            "bufferView" : 17,
            "componentType" : 5123,
            "count" : 1800,
            "type" : "SCALAR"
        },
        {
            "bufferView" : 18,
            "componentType" : 5126,
            "count" : 224,
            "max" : [
                0.16634780168533325,
                0.43335095047950745,
                0.19700835645198822
            ],
            "min" : [
                -0.23171256482601166,
                -0.09366448223590851,
                -0.24590598046779633
            ],
            "type" : "VEC3"
        },
        {
            "bufferView" : 19,
            "componentType" : 5126,
            "count" : 224,
            "type" : "VEC2"
        },
        {
            "bufferView" : 20,
            "componentType" : 5126,
            "count" : 224,
            "type" : "VEC3"
        },
        {
            "bufferView" : 21,
            "componentType" : 5126,
            "count" : 224,
            "type" : "VEC4"
        },
        {
            "bufferView" : 22,
            "componentType" : 5123,
            "count" : 1020,
            "type" : "SCALAR"
        },
        {
            "bufferView" : 23,
            "componentType" : 5126,
            "count" : 110,
            "max" : [
                0.061715155839920044,
                0.13438232243061066,
                0.1106811910867691
            ],
            "min" : [
                -0.0642465353012085,
                0.0076562464237213135,
                -0.014734901487827301
            ],
            "type" : "VEC3"
        },
        {
            "bufferView" : 24,
            "componentType" : 5126,
            "count" : 110,
            "type" : "VEC2"
        },
        {
            "bufferView" : 25,
            "componentType" : 5126,
            "count" : 110,
            "type" : "VEC3"
        },
        {
            "bufferView" : 26,
            "componentType" : 5126,
            "count" : 110,
            "type" : "VEC4"
        },
        {
            "bufferView" : 27,
            "componentType" : 5123,
            "count" : 540,
            "type" : "SCALAR"
        },
        {
            "bufferView" : 28,
            "componentType" : 5126,
            "count" : 132,
            "max" : [
                0.0862434059381485,
                0.17357787489891052,
                0.15159986913204193
            ],
            "min" : [
                -0.08811808377504349,
                -0.030988387763500214,
                -0.05885230004787445
            ],
            "type" : "VEC3"
        },
        {
            "bufferView" : 29,
            "componentType" : 5126,
            "count" : 132,
            "type" : "VEC2"
        },
        {
            "bufferView" : 30,
            "componentType" : 5126,
            "count" : 132,
            "type" : "VEC2"
        },
        {
            "bufferView" : 31,
            "componentType" : 5126,
            "count" : 132,
            "type" : "VEC3"
        },
        {
            "bufferView" : 32,
            "componentType" : 5126,
            "count" : 132,
            "type" : "VEC4"
        },
        {
            "bufferView" : 33,
            "componentType" : 5123,
            "count" : 132,
            "type" : "SCALAR"
        },
        {
            "bufferView" : 34,
            "componentType" : 5126,
            "count" : 8987,
            "max" : [
                0.6918259263038635,
                1.0834803581237793,
                0.41087985038757324
            ],
            "min" : [
                -0.39181700348854065,
                -0.7791545391082764,
                -0.33097875118255615
            ],
            "type" : "VEC3"
        },
        {
            "bufferView" : 35,
            "componentType" : 5126,
            "count" : 8987,
            "type" : "VEC2"
        },
        {
            "bufferView" : 36,
            "componentType" : 5126,
            "count" : 8987,
            "type" : "VEC3"
        },
        {
            "bufferView" : 37,
            "componentType" : 5126,
            "count" : 8987,
            "type" : "VEC4"
        },
        {
            "bufferView" : 38,
            "componentType" : 5123,
            "count" : 21732,
            "type" : "SCALAR"
        }
    ],
    "bufferViews" : [
        {
            "buffer" : 0,
            "byteLength" : 3528,
            "byteOffset" : 0,
            "target" : 34962
        },
        {
            "buffer" : 0,
            "byteLength" : 2352,
            "byteOffset" : 3528,
            "target" : 34962
        },
        {
            "buffer" : 0,
            "byteLength" : 2352,
            "byteOffset" : 5880,
            "target" : 34962
        },
        {
            "buffer" : 0,
            "byteLength" : 3528,
            "byteOffset" : 8232,
            "target" : 34962
        },
        {
            "buffer" : 0,
            "byteLength" : 4704,
            "byteOffset" : 11760,
            "target" : 34962
        },
        {
            "buffer" : 0,
            "byteLength" : 1020,
            "byteOffset" : 16464,
            "target" : 34963
        },
        {
            "buffer" : 0,
            "byteLength" : 648,
            "byteOffset" : 17484,
            "target" : 34962
        },
        {
            "buffer" : 0,
            "byteLength" : 432,
            "byteOffset" : 18132,
            "target" : 34962
        },
        {
            "buffer" : 0,
            "byteLength" : 432,
            "byteOffset" : 18564,
            "target" : 34962
        },
        {
            "buffer" : 0,
            "byteLength" : 648,
            "byteOffset" : 18996,
            "target" : 34962
        },
        {
            "buffer" : 0,
            "byteLength" : 864,
            "byteOffset" : 19644,
            "target" : 34962
        },
        {
            "buffer" : 0,
            "byteLength" : 108,
            "byteOffset" : 20508,
            "target" : 34963
        },
        {
            "buffer" : 0,
            "byteLength" : 6576,
            "byteOffset" : 20616,
            "target" : 34962
        },
        {
            "buffer" : 0,
            "byteLength" : 4384,
            "byteOffset" : 27192,
            "target" : 34962
        },
        {
            "buffer" : 0,
            "byteLength" : 4384,
            "byteOffset" : 31576,
            "target" : 34962
        },
        {
            "buffer" : 0,
            "byteLength" : 6576,
            "byteOffset" : 35960,
            "target" : 34962
        },
        {
            "buffer" : 0,
            "byteLength" : 8768,
            "byteOffset" : 42536,
            "target" : 34962
        },
        {
            "buffer" : 0,
            "byteLength" : 3600,
            "byteOffset" : 51304,
            "target" : 34963
        },
        {
            "buffer" : 0,
            "byteLength" : 2688,
            "byteOffset" : 54904,
            "target" : 34962
        },
        {
            "buffer" : 0,
            "byteLength" : 1792,
            "byteOffset" : 57592,
            "target" : 34962
        },
        {
            "buffer" : 0,
            "byteLength" : 2688,
            "byteOffset" : 59384,
            "target" : 34962
        },
        {
            "buffer" : 0,
            "byteLength" : 3584,
            "byteOffset" : 62072,
            "target" : 34962
        },
        {
            "buffer" : 0,
            "byteLength" : 2040,
            "byteOffset" : 65656,
            "target" : 34963
        },
        {
            "buffer" : 0,
            "byteLength" : 1320,
            "byteOffset" : 67696,
            "target" : 34962
        },
        {
            "buffer" : 0,
            "byteLength" : 880,
            "byteOffset" : 69016,
            "target" : 34962
        },
        {
            "buffer" : 0,
            "byteLength" : 1320,
            "byteOffset" : 69896,
            "target" : 34962
        },
        {
            "buffer" : 0,
            "byteLength" : 1760,
            "byteOffset" : 71216,
            "target" : 34962
        },
        {
            "buffer" : 0,
            "byteLength" : 1080,
            "byteOffset" : 72976,
            "target" : 34963
        },
        {
            "buffer" : 0,
            "byteLength" : 1584,
            "byteOffset" : 74056,
            "target" : 34962
        },
        {
            "buffer" : 0,
            "byteLength" : 1056,
            "byteOffset" : 75640,
            "target" : 34962
        },
        {
            "buffer" : 0,
            "byteLength" : 1056,
            "byteOffset" : 76696,
            "target" : 34962
        },
        {
            "buffer" : 0,
            "byteLength" : 1584,
            "byteOffset" : 77752,
            "target" : 34962
        },
        {
            "buffer" : 0,
            "byteLength" : 2112,
            "byteOffset" : 79336,
            "target" : 34962
        },
        {
            "buffer" : 0,
            "byteLength" : 264,
            "byteOffset" : 81448,
            "target" : 34963
        },
        {
            "buffer" : 0,
            "byteLength" : 107844,
            "byteOffset" : 81712,
            "target" : 34962
        },
        {
            "buffer" : 0,
            "byteLength" : 71896,
            "byteOffset" : 189556,
            "target" : 34962
        },
        {
            "buffer" : 0,
            "byteLength" : 107844,
            "byteOffset" : 261452,
            "target" : 34962
        },
        {
            "buffer" : 0,
            "byteLength" : 143792,
            "byteOffset" : 369296,
            "target" : 34962
        },
        {
            "buffer" : 0,
            "byteLength" : 43464,
            "byteOffset" : 513088,
            "target" : 34963
        }
    ],
    "samplers" : [
        {
            "magFilter" : 9729,
            "minFilter" : 9987
        }
    ],
    "buffers" : [
        {
            "byteLength" : 556552,
            "uri" : "scene_lod0.bin"
        }
    ]
}
